<svg width="28" height="28" viewBox="0 0 28 28" fill="none" xmlns="http://www.w3.org/2000/svg">
<path d="M6.94238 24.1133H7.99707C8.76172 24.1133 9.28027 23.5947 9.28027 22.83V22.83C9.28027 22.1041 9.89733 21.5319 10.6225 21.5652C11.6765 21.6135 12.8062 21.6347 13.9912 21.6347C15.1762 21.6347 16.306 21.6135 17.3599 21.5652C18.0851 21.5319 18.7021 22.1041 18.7021 22.83V22.83C18.7021 23.5947 19.2207 24.1133 19.9941 24.1133H21.0488C21.8135 24.1133 22.332 23.5859 22.332 22.83V22.0432C22.332 21.0749 22.7803 20.1158 22.7803 19.1474V19.1474V12.3799C22.7803 12.1566 22.9613 11.9756 23.1846 11.9756V11.9756C23.7471 11.9756 24.1514 11.6152 24.1514 11.0791V7.29099C24.1514 6.75485 23.7471 6.3945 23.1846 6.3945V6.3945C22.9613 6.3945 22.7803 6.21349 22.7803 5.9902V5.47165C22.7803 4.24118 22.0771 3.5029 20.7852 3.32712C18.9746 3.0986 16.5312 2.98434 13.9912 2.98434C11.4512 2.98434 9.00781 3.0986 7.19727 3.32712C5.91406 3.5029 5.20215 4.24997 5.20215 5.47165V5.99899C5.20215 6.21743 5.02507 6.3945 4.80664 6.3945V6.3945C4.24414 6.3945 3.83984 6.75485 3.83984 7.29099V11.0791C3.83984 11.6152 4.24414 11.9756 4.80664 11.9756V11.9756C5.02507 11.9756 5.20215 12.1526 5.20215 12.3711V19.1474V19.1474C5.20215 20.1101 5.65039 21.0626 5.65039 22.0253V22.83C5.65039 23.5859 6.16895 24.1133 6.94238 24.1133ZM13.9912 20.2197C11.3281 20.2197 9.13965 20.1054 7.61035 19.9033C6.88965 19.7978 6.62598 19.4111 6.62598 18.7343V5.88474C6.62598 5.21677 6.95996 4.81247 7.61035 4.71579C9.11328 4.51364 11.4248 4.39938 13.9912 4.39938C16.54 4.40817 18.8516 4.52243 20.3721 4.71579C21.0928 4.81247 21.3652 5.19919 21.3652 5.88474V18.7343C21.3652 19.4199 21.0928 19.8066 20.3721 19.9033C18.8252 20.0966 16.6279 20.2197 13.9912 20.2197ZM8.38379 15.333C11.7148 15.8779 16.2676 15.8779 19.6162 15.333C20.1963 15.2363 20.4863 14.8935 20.4863 14.2783V6.74606C20.4863 6.05173 20.1523 5.65622 19.4932 5.5947C16.1445 5.26071 11.873 5.2695 8.51562 5.5947C7.85645 5.65622 7.51367 6.05173 7.51367 6.74606V14.2783C7.51367 14.8935 7.80371 15.2363 8.38379 15.333ZM8.99023 18.9013C9.60547 18.9013 10.0801 18.4267 10.0801 17.8115C10.0801 17.1963 9.60547 16.7216 8.99023 16.7216C8.36621 16.7216 7.8916 17.1963 7.8916 17.8115C7.8916 18.4267 8.36621 18.9013 8.99023 18.9013ZM19.001 18.9013C19.6162 18.9013 20.0996 18.4267 20.0996 17.8115C20.0996 17.1963 19.6162 16.7216 19.001 16.7216C18.3857 16.7216 17.9111 17.1963 17.9111 17.8115C17.9111 18.4267 18.3857 18.9013 19.001 18.9013ZM11.9785 18.6025H16.0391C16.5137 18.6025 16.8477 18.2685 16.8477 17.7939C16.8477 17.3193 16.5137 16.9941 16.0391 16.9941H11.9785C11.46 16.9941 11.126 17.3193 11.126 17.7939C11.126 18.2685 11.46 18.6025 11.9785 18.6025Z" fill="#B7B7B7"/>
</svg>
