<svg width="28" height="28" viewBox="0 0 28 28" fill="none" xmlns="http://www.w3.org/2000/svg">
<path d="M8.86523 23.0459H18.2344C20.124 23.0459 21.0996 22.0527 21.0996 20.1543V12.2881H14.5078C13.4092 12.2881 12.8818 11.7607 12.8818 10.6621V4H8.86523C6.98438 4 6 4.99316 6 6.90039V20.1543C6 22.0527 6.98438 23.0459 8.86523 23.0459ZM14.6748 11.0049H21.0117C20.959 10.6006 20.6689 10.2227 20.2119 9.75684L15.4043 4.8877C14.9648 4.43945 14.5693 4.14062 14.165 4.08789V10.4951C14.1738 10.8379 14.3408 11.0049 14.6748 11.0049ZM10.1396 16.1816C9.76172 16.1816 9.48926 15.9092 9.48926 15.5576C9.48926 15.2061 9.76172 14.9336 10.1396 14.9336H16.9863C17.3467 14.9336 17.6279 15.2061 17.6279 15.5576C17.6279 15.9092 17.3467 16.1816 16.9863 16.1816H10.1396ZM10.1396 19.4775C9.76172 19.4775 9.48926 19.2051 9.48926 18.8535C9.48926 18.502 9.76172 18.2295 10.1396 18.2295H16.9863C17.3467 18.2295 17.6279 18.502 17.6279 18.8535C17.6279 19.2051 17.3467 19.4775 16.9863 19.4775H10.1396Z" fill="url(#paint0_linear_1_1001)"/>
<defs>
<linearGradient id="paint0_linear_1_1001" x1="21.0996" y1="4" x2="2.18932" y2="8.15421" gradientUnits="userSpaceOnUse">
<stop stop-color="#1E7AFF"/>
<stop offset="1" stop-color="#009DF5"/>
</linearGradient>
</defs>
</svg>
