<svg width="28" height="28" viewBox="0 0 28 28" fill="none" xmlns="http://www.w3.org/2000/svg">
<path fill-rule="evenodd" clip-rule="evenodd" d="M4.94164 10.2204C4.34856 10.6689 4 11.3695 4 12.113V22.8154C4 23.3884 4.23413 23.9379 4.65087 24.3431C5.06762 24.7483 5.63285 24.9759 6.22222 24.9759H11.0482C11.0169 24.8807 11 24.7789 11 24.6732V17.9689C11 17.4338 11.4338 17 11.9689 17H15.957C16.4921 17 16.9259 17.4338 16.9259 17.9689V24.6732C16.9259 24.7789 16.909 24.8807 16.8777 24.9759H21.7778C22.3671 24.9759 22.9324 24.7483 23.3491 24.3431C23.7659 23.9379 24 23.3884 24 22.8154V12.113C24 11.3695 23.6514 10.6689 23.0584 10.2204L15.4312 4.45285C14.5845 3.81259 13.4155 3.81259 12.5688 4.45285L4.94164 10.2204Z" fill="#B7B7B7"/>
</svg>
