<svg width="20" height="22" viewBox="0 0 20 22" fill="none" xmlns="http://www.w3.org/2000/svg">
<mask id="path-1-inside-1_487_1047" fill="white">
<path fill-rule="evenodd" clip-rule="evenodd" d="M0.941645 7.22041C0.348558 7.66889 0 8.36946 0 9.11302V19.8154C0 20.3884 0.234126 20.9379 0.650874 21.3431C1.06762 21.7483 1.63285 21.9759 2.22222 21.9759H7.04821C7.01693 21.8807 7 21.7789 7 21.6732V14.9689C7 14.4338 7.43379 14 7.96889 14H11.957C12.4921 14 12.9259 14.4338 12.9259 14.9689V21.6732C12.9259 21.7789 12.909 21.8807 12.8777 21.9759H17.7778C18.3671 21.9759 18.9324 21.7483 19.3491 21.3431C19.7659 20.9379 20 20.3884 20 19.8154V9.11302C20 8.36946 19.6514 7.66889 19.0584 7.22041L11.4312 1.45285C10.5845 0.812591 9.41553 0.812591 8.56884 1.45285L0.941645 7.22041Z"/>
</mask>
<path d="M0.941645 7.22041L0.640069 6.8216H0.640069L0.941645 7.22041ZM0.650874 21.3431L0.302331 21.7016L0.302332 21.7016L0.650874 21.3431ZM7.04821 21.9759V22.4759C7.20856 22.4759 7.35917 22.399 7.45321 22.2691C7.54724 22.1392 7.57328 21.9721 7.52323 21.8198L7.04821 21.9759ZM12.8777 21.9759L12.4027 21.8198C12.3526 21.9721 12.3787 22.1392 12.4727 22.2691C12.5668 22.399 12.7174 22.4759 12.8777 22.4759V21.9759ZM19.3491 21.3431L19.6977 21.7016V21.7016L19.3491 21.3431ZM19.0584 7.22041L18.7568 7.61922L19.0584 7.22041ZM11.4312 1.45285L11.1296 1.85166L11.4312 1.45285ZM8.56884 1.45285L8.87041 1.85166L8.56884 1.45285ZM0.5 9.11302C0.5 8.52614 0.775109 7.9732 1.24322 7.61922L0.640069 6.8216C-0.077994 7.36458 -0.5 8.21277 -0.5 9.11302H0.5ZM0.5 19.8154V9.11302H-0.5V19.8154H0.5ZM0.999416 20.9846C0.677926 20.672 0.5 20.2511 0.5 19.8154H-0.5C-0.5 20.5256 -0.209674 21.2038 0.302331 21.7016L0.999416 20.9846ZM2.22222 21.4759C1.76099 21.4759 1.32138 21.2976 0.999415 20.9846L0.302332 21.7016C0.813859 22.1989 1.50472 22.4759 2.22222 22.4759V21.4759ZM7.04821 21.4759H2.22222V22.4759H7.04821V21.4759ZM7.52323 21.8198C7.50829 21.7743 7.5 21.7252 7.5 21.6732H6.5C6.5 21.8326 6.52556 21.987 6.5732 22.132L7.52323 21.8198ZM7.5 21.6732V14.9689H6.5V21.6732H7.5ZM7.5 14.9689C7.5 14.7099 7.70993 14.5 7.96889 14.5V13.5C7.15765 13.5 6.5 14.1576 6.5 14.9689H7.5ZM7.96889 14.5H11.957V13.5H7.96889V14.5ZM11.957 14.5C12.216 14.5 12.4259 14.7099 12.4259 14.9689H13.4259C13.4259 14.1576 12.7683 13.5 11.957 13.5V14.5ZM12.4259 14.9689V21.6732H13.4259V14.9689H12.4259ZM12.4259 21.6732C12.4259 21.7252 12.4176 21.7743 12.4027 21.8198L13.3527 22.132C13.4004 21.987 13.4259 21.8326 13.4259 21.6732H12.4259ZM17.7778 21.4759H12.8777V22.4759H17.7778V21.4759ZM19.0006 20.9846C18.6786 21.2976 18.239 21.4759 17.7778 21.4759V22.4759C18.4953 22.4759 19.1861 22.1989 19.6977 21.7016L19.0006 20.9846ZM19.5 19.8154C19.5 20.2511 19.3221 20.672 19.0006 20.9846L19.6977 21.7016C20.2097 21.2038 20.5 20.5256 20.5 19.8154H19.5ZM19.5 9.11302V19.8154H20.5V9.11302H19.5ZM18.7568 7.61922C19.2249 7.9732 19.5 8.52614 19.5 9.11302H20.5C20.5 8.21277 20.078 7.36458 19.3599 6.8216L18.7568 7.61922ZM11.1296 1.85166L18.7568 7.61922L19.3599 6.8216L11.7327 1.05404L11.1296 1.85166ZM8.87041 1.85166C9.53869 1.34632 10.4613 1.34632 11.1296 1.85166L11.7327 1.05404C10.7076 0.278862 9.29237 0.278863 8.26726 1.05404L8.87041 1.85166ZM1.24322 7.61922L8.87041 1.85166L8.26726 1.05404L0.640069 6.8216L1.24322 7.61922Z" fill="white" mask="url(#path-1-inside-1_487_1047)"/>
</svg>
