<svg width="4" height="7" viewBox="0 0 4 7" fill="none" xmlns="http://www.w3.org/2000/svg">
<path d="M4 3.5C3.99609 3.36189 3.94521 3.23563 3.83562 3.13303L0.790606 0.13416C0.704501 0.0473509 0.594912 -2.60044e-08 0.465753 -2.03587e-08C0.207436 -9.06733e-09 -2.97011e-07 0.205186 -2.85627e-07 0.465615C-2.80108e-07 0.591883 0.0508804 0.714205 0.1409 0.804961L2.88454 3.49605L0.1409 6.19504C0.0547945 6.28579 -2.60445e-08 6.40417 -2.03527e-08 6.53439C-8.96897e-09 6.79481 0.207436 7 0.465753 7C0.594912 7 0.704501 6.95265 0.790607 6.86584L3.83562 3.86302C3.94521 3.75648 4 3.63811 4 3.5Z" fill="#353B45"/>
</svg>
