<svg width="13" height="22" viewBox="0 0 13 22" fill="none" xmlns="http://www.w3.org/2000/svg">
<path d="M4.41675 10.3397H4.41671L4.41679 10.3441L4.59255 20.3006C4.59255 20.3009 4.59255 20.3011 4.59256 20.3013C4.59614 20.6141 4.49868 20.8362 4.34466 20.9816C4.18825 21.1291 3.94385 21.2254 3.60327 21.2254C3.26244 21.2254 3.01564 21.129 2.85812 20.9811C2.70346 20.8359 2.60654 20.6147 2.61395 20.3036L2.61398 20.3021L2.78976 10.3441H2.7898V10.3397C2.7898 10.1327 2.7547 9.94136 2.65766 9.77592C2.55874 9.60726 2.4104 9.49087 2.23016 9.40894L2.22902 9.40843C1.6427 9.14545 1.26399 8.89473 1.03073 8.54437C0.799321 8.19679 0.685748 7.71184 0.724073 6.92407L0.724107 6.92333L0.970082 1.53823C0.980697 1.38174 1.02988 1.28167 1.08794 1.22244C1.14398 1.16528 1.22987 1.12384 1.36206 1.12384C1.49179 1.12384 1.56835 1.16547 1.61547 1.21868C1.66602 1.27575 1.70947 1.37688 1.70972 1.54042L1.64823 6.76659C1.64284 6.9824 1.70773 7.18052 1.84775 7.32594C1.98803 7.47161 2.18019 7.53986 2.38159 7.53986C2.58521 7.53986 2.77754 7.47327 2.92084 7.33696C3.06497 7.19986 3.14083 7.00976 3.14136 6.79986L3.22919 1.38037C3.22919 1.38014 3.2292 1.37991 3.2292 1.37968C3.23265 1.2308 3.2778 1.13591 3.33226 1.07979C3.38537 1.02505 3.47039 0.983215 3.60327 0.983215C3.73616 0.983215 3.82118 1.02505 3.87429 1.07979C3.92874 1.13591 3.9739 1.2308 3.97734 1.37968C3.97735 1.37991 3.97735 1.38014 3.97736 1.38037L4.06522 6.80172L4.0652 6.80172L4.06529 6.80481C4.07125 7.01334 4.14462 7.20301 4.28906 7.34031C4.43272 7.47688 4.62372 7.53986 4.82495 7.53986C5.02675 7.53986 5.21801 7.47141 5.35878 7.32708C5.49931 7.18299 5.56714 6.98635 5.56716 6.7713L5.56712 6.76794L5.49683 1.54022C5.49711 1.37679 5.54055 1.27573 5.59108 1.21868C5.6382 1.16547 5.71476 1.12384 5.84448 1.12384C5.9792 1.12384 6.06467 1.16468 6.11947 1.22002C6.17612 1.27724 6.22575 1.37624 6.23646 1.53803L6.48244 6.92333L6.48248 6.92407C6.5208 7.71184 6.40723 8.19679 6.17582 8.54437C5.94256 8.89473 5.56384 9.14545 4.97752 9.40843L4.97639 9.40894C4.79615 9.49087 4.64781 9.60726 4.54889 9.77592C4.45185 9.94136 4.41675 10.1327 4.41675 10.3397ZM10.8405 13.7126L10.8405 13.7123C10.8458 13.5055 10.8085 13.3148 10.7118 13.1392C10.6163 12.9658 10.4726 12.8249 10.2937 12.7007L10.2938 12.7007L10.2898 12.6981L9.81698 12.3828C9.60405 12.2354 9.45988 12.0746 9.36686 11.8903C9.27314 11.7047 9.22339 11.4794 9.22339 11.1922V10.7264C9.22339 8.99046 9.46661 7.16561 9.88682 5.52713C10.3079 3.88539 10.9022 2.4478 11.5941 1.47585L11.595 1.47453C11.8722 1.07964 12.0444 0.983215 12.2517 0.983215C12.374 0.983215 12.4707 1.02247 12.5353 1.08468C12.5976 1.14469 12.6521 1.24718 12.6521 1.41876V20.3416C12.6521 20.6496 12.5539 20.8593 12.401 20.9952C12.2437 21.1348 11.9959 21.2254 11.6453 21.2254C11.3093 21.2254 11.0636 21.1293 10.9065 20.9786C10.752 20.8305 10.6534 20.6012 10.6647 20.271L10.6647 20.2692L10.8405 13.7126Z" fill="white" stroke="white" stroke-width="0.5"/>
</svg>
