<svg width="40" height="40" viewBox="0 0 40 40" fill="none" xmlns="http://www.w3.org/2000/svg">
<circle cx="20" cy="20" r="19.5" stroke="#1A8EFF"/>
<path d="M12.9688 25.4639H27.0225C27.9277 25.4639 28.4814 24.9717 28.4814 24.2334C28.4814 23.3018 27.6377 22.502 26.8467 21.7461C26.2227 21.1396 26.082 19.874 25.9678 18.7051C25.8271 15.4883 24.8867 13.2207 22.6104 12.4033C22.25 11.2432 21.292 10.3467 19.9912 10.3467C18.6992 10.3467 17.7412 11.2432 17.3721 12.4033C15.1045 13.2207 14.1553 15.4883 14.0234 18.7051C13.9092 19.874 13.7598 21.1396 13.1445 21.7461C12.3535 22.502 11.5098 23.3018 11.5098 24.2334C11.5098 24.9717 12.0635 25.4639 12.9688 25.4639ZM19.9912 29.085C21.5557 29.085 22.6895 27.9688 22.8037 26.6943H17.1875C17.3018 27.9688 18.4355 29.085 19.9912 29.085Z" fill="#1A8EFF"/>
</svg>
