<svg width="16" height="17" viewBox="0 0 16 17" fill="none" xmlns="http://www.w3.org/2000/svg">
<path d="M1.37545 13.7148H14.6245C15.478 13.7148 16 13.2683 16 12.5985C16 11.7533 15.2046 11.0277 14.4588 10.3419C13.8705 9.79175 13.738 8.64353 13.6302 7.58302C13.4977 4.66463 12.6111 2.60741 10.465 1.86585C10.1253 0.813321 9.22217 0 7.99586 0C6.77784 0 5.87468 0.813321 5.52667 1.86585C3.38892 2.60741 2.49404 4.66463 2.36976 7.58302C2.26204 8.64353 2.12118 9.79175 1.54117 10.3419C0.795443 11.0277 0 11.7533 0 12.5985C0 13.2683 0.522009 13.7148 1.37545 13.7148ZM7.99586 17C9.47074 17 10.5396 15.9873 10.6473 14.8311H5.35267C5.46038 15.9873 6.52926 17 7.99586 17Z" fill="#1A8EFF"/>
</svg>
