<svg width="28" height="28" viewBox="0 0 28 28" fill="none" xmlns="http://www.w3.org/2000/svg">
<path d="M10.6033 24.4754C11.3768 24.4754 11.8514 24.0359 11.8426 23.2977L11.6668 13.3397C11.6668 12.9793 11.7898 12.7684 12.0799 12.6365C13.2752 12.1004 13.8113 11.5379 13.7322 9.91193L13.4861 4.52423C13.4598 4.11114 13.2225 3.87384 12.8445 3.87384C12.4666 3.87384 12.2469 4.12872 12.2469 4.54181L12.3172 9.7713C12.3172 10.0965 12.115 10.2899 11.825 10.2899C11.5262 10.2899 11.324 10.1053 11.3152 9.79767L11.2273 4.37482C11.2186 3.97931 10.9812 3.73322 10.6033 3.73322C10.2254 3.73322 9.98809 3.97931 9.9793 4.37482L9.89141 9.79767C9.89141 10.0965 9.68047 10.2899 9.38164 10.2899C9.0916 10.2899 8.88945 10.0965 8.89824 9.7713L8.95976 4.54181C8.95976 4.12872 8.74004 3.87384 8.36211 3.87384C7.98418 3.87384 7.74687 4.11993 7.72051 4.52423L7.47441 9.91193C7.39531 11.5379 7.93144 12.1004 9.12676 12.6365C9.4168 12.7684 9.53984 12.9793 9.53984 13.3397L9.36406 23.2977C9.34648 24.0359 9.82988 24.4754 10.6033 24.4754ZM17.5906 16.7059L17.4148 23.2625C17.3885 24.0359 17.8807 24.4754 18.6453 24.4754C19.4275 24.4754 19.9021 24.0711 19.9021 23.3416V4.41876C19.9021 3.96173 19.6033 3.73322 19.2518 3.73322C18.9178 3.73322 18.6805 3.91779 18.3904 4.33087C16.9578 6.34357 15.9734 10.2108 15.9734 13.7264V14.1922C15.9734 14.825 16.1932 15.2557 16.6766 15.5897L17.1512 15.9061C17.4676 16.1258 17.5994 16.3631 17.5906 16.7059Z" fill="#0081FF"/>
</svg>
