<svg width="21" height="19" viewBox="0 0 21 19" fill="none" xmlns="http://www.w3.org/2000/svg">
<path d="M3.29192 18.7009H17.0699C19.2412 18.7009 20.3719 17.5802 20.3719 15.439V3.2619C20.3719 1.12065 19.2412 0 17.0699 0H3.29192C1.13066 0 0 1.11065 0 3.2619V15.439C0 17.5802 1.13066 18.7009 3.29192 18.7009ZM3.28191 16.7097C2.45143 16.7097 1.99116 16.2795 1.99116 15.399V6.19361C1.99116 5.31309 2.45143 4.88284 3.28191 4.88284H17.0799C17.9104 4.88284 18.3707 5.31309 18.3707 6.19361V15.399C18.3707 16.2795 17.9104 16.7097 17.0799 16.7097H3.28191ZM8.2548 8.33485H8.84515C9.20536 8.33485 9.32543 8.22479 9.32543 7.87458V7.28424C9.32543 6.92403 9.20536 6.81397 8.84515 6.81397H8.2548C7.89459 6.81397 7.77452 6.92403 7.77452 7.28424V7.87458C7.77452 8.22479 7.89459 8.33485 8.2548 8.33485ZM11.5267 8.33485H12.1171C12.4673 8.33485 12.5873 8.22479 12.5873 7.87458V7.28424C12.5873 6.92403 12.4673 6.81397 12.1171 6.81397H11.5267C11.1665 6.81397 11.0464 6.92403 11.0464 7.28424V7.87458C11.0464 8.22479 11.1665 8.33485 11.5267 8.33485ZM14.7886 8.33485H15.379C15.7392 8.33485 15.8592 8.22479 15.8592 7.87458V7.28424C15.8592 6.92403 15.7392 6.81397 15.379 6.81397H14.7886C14.4384 6.81397 14.3183 6.92403 14.3183 7.28424V7.87458C14.3183 8.22479 14.4384 8.33485 14.7886 8.33485ZM4.99291 11.5567H5.57324C5.93345 11.5567 6.05352 11.4467 6.05352 11.0865V10.4961C6.05352 10.1459 5.93345 10.0358 5.57324 10.0358H4.99291C4.6327 10.0358 4.51263 10.1459 4.51263 10.4961V11.0865C4.51263 11.4467 4.6327 11.5567 4.99291 11.5567ZM8.2548 11.5567H8.84515C9.20536 11.5567 9.32543 11.4467 9.32543 11.0865V10.4961C9.32543 10.1459 9.20536 10.0358 8.84515 10.0358H8.2548C7.89459 10.0358 7.77452 10.1459 7.77452 10.4961V11.0865C7.77452 11.4467 7.89459 11.5567 8.2548 11.5567ZM11.5267 11.5567H12.1171C12.4673 11.5567 12.5873 11.4467 12.5873 11.0865V10.4961C12.5873 10.1459 12.4673 10.0358 12.1171 10.0358H11.5267C11.1665 10.0358 11.0464 10.1459 11.0464 10.4961V11.0865C11.0464 11.4467 11.1665 11.5567 11.5267 11.5567ZM14.7886 11.5567H15.379C15.7392 11.5567 15.8592 11.4467 15.8592 11.0865V10.4961C15.8592 10.1459 15.7392 10.0358 15.379 10.0358H14.7886C14.4384 10.0358 14.3183 10.1459 14.3183 10.4961V11.0865C14.3183 11.4467 14.4384 11.5567 14.7886 11.5567ZM4.99291 14.7686H5.57324C5.93345 14.7686 6.05352 14.6585 6.05352 14.3083V13.718C6.05352 13.3578 5.93345 13.2477 5.57324 13.2477H4.99291C4.6327 13.2477 4.51263 13.3578 4.51263 13.718V14.3083C4.51263 14.6585 4.6327 14.7686 4.99291 14.7686ZM8.2548 14.7686H8.84515C9.20536 14.7686 9.32543 14.6585 9.32543 14.3083V13.718C9.32543 13.3578 9.20536 13.2477 8.84515 13.2477H8.2548C7.89459 13.2477 7.77452 13.3578 7.77452 13.718V14.3083C7.77452 14.6585 7.89459 14.7686 8.2548 14.7686ZM11.5267 14.7686H12.1171C12.4673 14.7686 12.5873 14.6585 12.5873 14.3083V13.718C12.5873 13.3578 12.4673 13.2477 12.1171 13.2477H11.5267C11.1665 13.2477 11.0464 13.3578 11.0464 13.718V14.3083C11.0464 14.6585 11.1665 14.7686 11.5267 14.7686Z" fill="white"/>
</svg>
