<svg width="14" height="15" viewBox="0 0 14 15" fill="none" xmlns="http://www.w3.org/2000/svg">
<path d="M1.16016 11.9676H4.0053C4.05364 13.2796 5.13093 14.495 6.71924 14.495C8.30064 14.495 9.38484 13.2935 9.44008 11.9676H12.2783C12.9965 11.9676 13.4385 11.5739 13.4385 10.9801C13.4385 10.2411 12.7686 9.61272 12.1402 9.01193C11.6499 8.53544 11.5325 7.58245 11.4427 6.60875C11.3461 4.0053 10.5795 2.26507 8.78404 1.61593C8.51472 0.697475 7.74819 0 6.71924 0C5.69029 0 4.92376 0.697475 4.66134 1.61593C2.85896 2.26507 2.09933 4.0053 1.99574 6.60875C1.90597 7.58245 1.78857 8.53544 1.29827 9.01193C0.669852 9.61272 0 10.2411 0 10.9801C0 11.5739 0.441964 11.9676 1.16016 11.9676ZM1.68499 10.6831V10.6002C1.86454 10.4 2.26507 10.034 2.60345 9.64725C3.07994 9.1017 3.30092 8.09347 3.36998 6.78139C3.45285 4.01221 4.30915 3.07994 5.41406 2.78299C5.5867 2.73465 5.67648 2.65179 5.69029 2.46533C5.72482 1.76786 6.11844 1.29827 6.71924 1.29827C7.32694 1.29827 7.71366 1.76786 7.74819 2.46533C7.762 2.65179 7.85868 2.73465 8.02441 2.78299C9.13623 3.07994 9.98563 4.01221 10.0685 6.78139C10.1445 8.09347 10.3654 9.1017 10.835 9.64725C11.1734 10.034 11.5601 10.4 11.7397 10.6002V10.6831H1.68499ZM6.71924 13.3832C5.93889 13.3832 5.37953 12.8239 5.33119 11.9676H8.11419C8.07275 12.817 7.50649 13.3832 6.71924 13.3832Z" fill="#4BA7FF"/>
</svg>
