<svg width="18" height="18" viewBox="0 0 18 18" fill="none" xmlns="http://www.w3.org/2000/svg">
<path fill-rule="evenodd" clip-rule="evenodd" d="M11.194 4.056C13.2687 6.13066 13.2687 9.49434 11.194 11.569C9.11935 13.6437 5.75566 13.6437 3.681 11.569C1.60633 9.49434 1.60633 6.13066 3.681 4.056C5.75566 1.98134 9.11935 1.98133 11.194 4.056ZM13.1672 12.5553C15.5916 9.63341 15.4347 5.29151 12.6966 2.55339C9.79208 -0.351131 5.08292 -0.351131 2.17839 2.55339C-0.726131 5.45792 -0.726131 10.1671 2.17839 13.0716C4.73776 15.631 8.69835 15.9351 11.5907 13.984L15.2395 17.6328C15.6545 18.0477 16.3272 18.0477 16.7421 17.6328C17.1571 17.2179 17.1571 16.5451 16.7421 16.1302L13.1672 12.5553Z" fill="#353B45"/>
</svg>
