<svg width="13" height="13" viewBox="0 0 13 13" fill="none" xmlns="http://www.w3.org/2000/svg">
<circle cx="6.5" cy="6.5" r="6.5" fill="#D9EDFF"/>
<path d="M6.49985 9.10006C6.65374 9.09624 6.79444 9.04663 6.90876 8.93978L10.2504 5.9709C10.3471 5.88695 10.3999 5.7801 10.3999 5.65417C10.3999 5.40231 10.1712 5.20006 9.88103 5.20006C9.74033 5.20006 9.60402 5.24967 9.5029 5.33744L6.50425 8.01248L3.49681 5.33744C3.39568 5.25348 3.26378 5.20006 3.11868 5.20006C2.82849 5.20006 2.59985 5.40231 2.59985 5.65417C2.59985 5.7801 2.65262 5.88695 2.74935 5.9709L6.09534 8.93978C6.21406 9.04663 6.34596 9.10006 6.49985 9.10006Z" fill="#0078D4"/>
</svg>
