<svg width="13" height="22" viewBox="0 0 13 22" fill="none" xmlns="http://www.w3.org/2000/svg">
<path d="M4.4168 10.3397H4.41676L4.41684 10.3441L4.5926 20.3006C4.5926 20.3009 4.5926 20.3011 4.5926 20.3013C4.59619 20.6141 4.49873 20.8362 4.34471 20.9816C4.1883 21.1291 3.9439 21.2254 3.60332 21.2254C3.26248 21.2254 3.01569 21.129 2.85817 20.9811C2.70351 20.8359 2.60658 20.6147 2.614 20.3036L2.61402 20.3021L2.7898 10.3441H2.78984V10.3397C2.78984 10.1327 2.75475 9.94136 2.65771 9.77592C2.55878 9.60726 2.41044 9.49087 2.23021 9.40894L2.22907 9.40843C1.64275 9.14545 1.26403 8.89473 1.03078 8.54437C0.799367 8.19679 0.685794 7.71184 0.724119 6.92407L0.724153 6.92333L0.970128 1.53823C0.980743 1.38174 1.02993 1.28167 1.08799 1.22244C1.14403 1.16528 1.22992 1.12384 1.36211 1.12384C1.49183 1.12384 1.56839 1.16547 1.61551 1.21868C1.66606 1.27575 1.70952 1.37688 1.70976 1.54042L1.64828 6.76659C1.64289 6.9824 1.70777 7.18052 1.8478 7.32594C1.98808 7.47161 2.18024 7.53986 2.38164 7.53986C2.58525 7.53986 2.77759 7.47327 2.92089 7.33696C3.06502 7.19986 3.14088 7.00976 3.1414 6.79986L3.22923 1.38037C3.22924 1.38014 3.22924 1.37991 3.22925 1.37968C3.23269 1.2308 3.27785 1.13591 3.3323 1.07979C3.38542 1.02505 3.47043 0.983215 3.60332 0.983215C3.73621 0.983215 3.82122 1.02505 3.87434 1.07979C3.92879 1.13591 3.97395 1.2308 3.97739 1.37968C3.97739 1.37991 3.9774 1.38014 3.9774 1.38037L4.06527 6.80172L4.06525 6.80172L4.06534 6.80481C4.07129 7.01334 4.14467 7.20301 4.28911 7.34031C4.43277 7.47688 4.62376 7.53986 4.825 7.53986C5.02679 7.53986 5.21806 7.47141 5.35883 7.32708C5.49936 7.18299 5.56719 6.98635 5.56721 6.7713L5.56716 6.76794L5.49688 1.54022C5.49716 1.37679 5.5406 1.27573 5.59113 1.21868C5.63825 1.16547 5.71481 1.12384 5.84453 1.12384C5.97924 1.12384 6.06471 1.16468 6.11951 1.22002C6.17617 1.27724 6.2258 1.37624 6.2365 1.53803L6.48249 6.92333L6.48252 6.92407C6.52085 7.71184 6.40727 8.19679 6.17586 8.54437C5.94261 8.89473 5.56389 9.14545 4.97757 9.40843L4.97643 9.40894C4.7962 9.49087 4.64786 9.60726 4.54893 9.77592C4.45189 9.94136 4.4168 10.1327 4.4168 10.3397ZM10.8405 13.7126L10.8405 13.7123C10.8458 13.5055 10.8086 13.3148 10.7118 13.1392C10.6163 12.9658 10.4726 12.8249 10.2938 12.7007L10.2938 12.7007L10.2898 12.6981L9.81703 12.3828C9.6041 12.2354 9.45993 12.0746 9.3669 11.8903C9.27319 11.7047 9.22344 11.4794 9.22344 11.1922V10.7264C9.22344 8.99046 9.46666 7.16561 9.88686 5.52713C10.3079 3.88539 10.9023 2.4478 11.5941 1.47585L11.595 1.47453C11.8723 1.07964 12.0444 0.983215 12.2518 0.983215C12.374 0.983215 12.4708 1.02247 12.5354 1.08468C12.5977 1.14469 12.6521 1.24718 12.6521 1.41876V20.3416C12.6521 20.6496 12.554 20.8593 12.401 20.9952C12.2438 21.1348 11.9959 21.2254 11.6453 21.2254C11.3093 21.2254 11.0637 21.1293 10.9065 20.9786C10.7521 20.8305 10.6534 20.6012 10.6647 20.271L10.6648 20.2692L10.8405 13.7126Z" stroke="white" stroke-width="0.5"/>
</svg>
