<svg width="20" height="22" viewBox="0 0 20 22" fill="none" xmlns="http://www.w3.org/2000/svg">
<path fill-rule="evenodd" clip-rule="evenodd" d="M0.941645 7.22041C0.348558 7.66889 0 8.36946 0 9.11302V19.8154C0 20.3884 0.234126 20.9379 0.650874 21.3431C1.06762 21.7483 1.63285 21.9759 2.22222 21.9759H7.04821C7.01693 21.8807 7 21.7789 7 21.6732V14.9689C7 14.4338 7.43379 14 7.96889 14H11.957C12.4921 14 12.9259 14.4338 12.9259 14.9689V21.6732C12.9259 21.7789 12.909 21.8807 12.8777 21.9759H17.7778C18.3671 21.9759 18.9324 21.7483 19.3491 21.3431C19.7659 20.9379 20 20.3884 20 19.8154V9.11302C20 8.36946 19.6514 7.66889 19.0584 7.22041L11.4312 1.45285C10.5845 0.812591 9.41553 0.812591 8.56884 1.45285L0.941645 7.22041Z" fill="white"/>
</svg>
