<svg width="20" height="8" viewBox="0 0 20 8" fill="none" xmlns="http://www.w3.org/2000/svg">
<path d="M0.646447 3.64645C0.451184 3.84171 0.451184 4.15829 0.646447 4.35355L3.82843 7.53553C4.02369 7.7308 4.34027 7.7308 4.53553 7.53553C4.7308 7.34027 4.7308 7.02369 4.53553 6.82843L1.70711 4L4.53553 1.17157C4.7308 0.976311 4.7308 0.659728 4.53553 0.464466C4.34027 0.269204 4.02369 0.269204 3.82843 0.464466L0.646447 3.64645ZM19.3536 4.35355C19.5488 4.15829 19.5488 3.84171 19.3536 3.64645L16.1716 0.464466C15.9763 0.269204 15.6597 0.269204 15.4645 0.464466C15.2692 0.659728 15.2692 0.976311 15.4645 1.17157L18.2929 4L15.4645 6.82843C15.2692 7.02369 15.2692 7.34027 15.4645 7.53553C15.6597 7.7308 15.9763 7.7308 16.1716 7.53553L19.3536 4.35355ZM1 4.5H19V3.5H1V4.5Z" fill="#353B45"/>
</svg>
