<svg width="30" height="30" viewBox="0 0 30 30" fill="none" xmlns="http://www.w3.org/2000/svg">
<path d="M6.54517 10.1C7.2829 10.1 7.87122 9.51166 7.87122 8.77393C7.87122 8.04553 7.2829 7.44788 6.54517 7.44788C5.81677 7.44788 5.21912 8.04553 5.21912 8.77393C5.21912 9.51166 5.81677 10.1 6.54517 10.1ZM10.9342 9.67041H23.6157C24.12 9.67041 24.5215 9.2782 24.5215 8.77393C24.5215 8.26965 24.1293 7.87744 23.6157 7.87744H10.9342C10.4393 7.87744 10.0377 8.26965 10.0377 8.77393C10.0377 9.2782 10.4299 9.67041 10.9342 9.67041ZM6.54517 15.8431C7.2829 15.8431 7.87122 15.2548 7.87122 14.517C7.87122 13.7886 7.2829 13.191 6.54517 13.191C5.81677 13.191 5.21912 13.7886 5.21912 14.517C5.21912 15.2548 5.81677 15.8431 6.54517 15.8431ZM10.9342 15.4135H23.6157C24.12 15.4135 24.5215 15.0213 24.5215 14.517C24.5215 14.0128 24.1293 13.6205 23.6157 13.6205H10.9342C10.4393 13.6205 10.0377 14.0128 10.0377 14.517C10.0377 15.0213 10.4299 15.4135 10.9342 15.4135ZM6.54517 21.5862C7.2829 21.5862 7.87122 20.9979 7.87122 20.2601C7.87122 19.5317 7.2829 18.9341 6.54517 18.9341C5.81677 18.9341 5.21912 19.5317 5.21912 20.2601C5.21912 20.9979 5.81677 21.5862 6.54517 21.5862ZM10.9342 21.1566H23.6157C24.12 21.1566 24.5215 20.7644 24.5215 20.2601C24.5215 19.7559 24.1293 19.3636 23.6157 19.3636H10.9342C10.4393 19.3636 10.0377 19.7559 10.0377 20.2601C10.0377 20.7644 10.4299 21.1566 10.9342 21.1566Z" fill="#353B45"/>
</svg>
