<svg width="11" height="6" viewBox="0 0 11 6" fill="none" xmlns="http://www.w3.org/2000/svg">
<path d="M5.79997 0.799972C5.59479 0.80506 5.40719 0.871205 5.25476 1.01367L0.79927 4.97221C0.670295 5.08414 0.599945 5.22661 0.599945 5.39452C0.599945 5.73033 0.904795 6 1.29172 6C1.47932 6 1.66106 5.93385 1.79589 5.81683L5.79411 2.25008L9.80405 5.81683C9.93889 5.92877 10.1148 6 10.3082 6C10.6952 6 11 5.73033 11 5.39452C11 5.22661 10.9297 5.08414 10.8007 4.97221L6.33932 1.01367C6.18103 0.871205 6.00516 0.799972 5.79997 0.799972Z" fill="#0081FF"/>
</svg>
