<svg width="28" height="28" viewBox="0 0 28 28" fill="none" xmlns="http://www.w3.org/2000/svg">
<path d="M7.21482 22H20.6701C22.7906 22 23.8947 20.9213 23.8947 18.8604V7.13965C23.8947 5.07865 22.7906 4 20.6701 4H7.21482C5.10418 4 4 5.06902 4 7.13965V18.8604C4 20.9213 5.10418 22 7.21482 22ZM7.20505 20.0835C6.39401 20.0835 5.94452 19.6693 5.94452 18.8218V9.96148C5.94452 9.11396 6.39401 8.69984 7.20505 8.69984H20.6799C21.491 8.69984 21.9404 9.11396 21.9404 9.96148V18.8218C21.9404 19.6693 21.491 20.0835 20.6799 20.0835H7.20505ZM12.0615 12.0225H12.638C12.9898 12.0225 13.107 11.9165 13.107 11.5795V11.0112C13.107 10.6645 12.9898 10.5586 12.638 10.5586H12.0615C11.7097 10.5586 11.5924 10.6645 11.5924 11.0112V11.5795C11.5924 11.9165 11.7097 12.0225 12.0615 12.0225ZM15.2567 12.0225H15.8333C16.1753 12.0225 16.2925 11.9165 16.2925 11.5795V11.0112C16.2925 10.6645 16.1753 10.5586 15.8333 10.5586H15.2567C14.905 10.5586 14.7877 10.6645 14.7877 11.0112V11.5795C14.7877 11.9165 14.905 12.0225 15.2567 12.0225ZM18.4423 12.0225H19.0188C19.3705 12.0225 19.4878 11.9165 19.4878 11.5795V11.0112C19.4878 10.6645 19.3705 10.5586 19.0188 10.5586H18.4423C18.1002 10.5586 17.983 10.6645 17.983 11.0112V11.5795C17.983 11.9165 18.1002 12.0225 18.4423 12.0225ZM8.87597 15.1236H9.44272C9.79449 15.1236 9.91175 15.0177 9.91175 14.6709V14.1027C9.91175 13.7656 9.79449 13.6597 9.44272 13.6597H8.87597C8.5242 13.6597 8.40694 13.7656 8.40694 14.1027V14.6709C8.40694 15.0177 8.5242 15.1236 8.87597 15.1236ZM12.0615 15.1236H12.638C12.9898 15.1236 13.107 15.0177 13.107 14.6709V14.1027C13.107 13.7656 12.9898 13.6597 12.638 13.6597H12.0615C11.7097 13.6597 11.5924 13.7656 11.5924 14.1027V14.6709C11.5924 15.0177 11.7097 15.1236 12.0615 15.1236ZM15.2567 15.1236H15.8333C16.1753 15.1236 16.2925 15.0177 16.2925 14.6709V14.1027C16.2925 13.7656 16.1753 13.6597 15.8333 13.6597H15.2567C14.905 13.6597 14.7877 13.7656 14.7877 14.1027V14.6709C14.7877 15.0177 14.905 15.1236 15.2567 15.1236ZM18.4423 15.1236H19.0188C19.3705 15.1236 19.4878 15.0177 19.4878 14.6709V14.1027C19.4878 13.7656 19.3705 13.6597 19.0188 13.6597H18.4423C18.1002 13.6597 17.983 13.7656 17.983 14.1027V14.6709C17.983 15.0177 18.1002 15.1236 18.4423 15.1236ZM8.87597 18.2151H9.44272C9.79449 18.2151 9.91175 18.1091 9.91175 17.7721V17.2039C9.91175 16.8571 9.79449 16.7512 9.44272 16.7512H8.87597C8.5242 16.7512 8.40694 16.8571 8.40694 17.2039V17.7721C8.40694 18.1091 8.5242 18.2151 8.87597 18.2151ZM12.0615 18.2151H12.638C12.9898 18.2151 13.107 18.1091 13.107 17.7721V17.2039C13.107 16.8571 12.9898 16.7512 12.638 16.7512H12.0615C11.7097 16.7512 11.5924 16.8571 11.5924 17.2039V17.7721C11.5924 18.1091 11.7097 18.2151 12.0615 18.2151ZM15.2567 18.2151H15.8333C16.1753 18.2151 16.2925 18.1091 16.2925 17.7721V17.2039C16.2925 16.8571 16.1753 16.7512 15.8333 16.7512H15.2567C14.905 16.7512 14.7877 16.8571 14.7877 17.2039V17.7721C14.7877 18.1091 14.905 18.2151 15.2567 18.2151Z" fill="#0081FF"/>
</svg>
