<svg width="22" height="23" viewBox="0 0 22 23" fill="none" xmlns="http://www.w3.org/2000/svg">
<path d="M4.57415 18.1507L4.57759 18.1511C6.12228 18.3553 8.32296 18.4697 10.9912 18.4697C13.6343 18.4697 15.8426 18.3464 17.4031 18.1514L17.4053 18.1511C17.8036 18.0976 18.1209 17.9579 18.3328 17.6974C18.5421 17.4403 18.6152 17.1058 18.6152 16.7343V3.88474C18.6152 3.51326 18.5421 3.17883 18.3328 2.92167C18.1209 2.6612 17.8036 2.52144 17.4053 2.468L17.4036 2.46779C15.8684 2.27256 13.5453 2.15819 10.9921 2.14938H10.9912C8.4202 2.14938 6.096 2.26371 4.57703 2.46802L4.57702 2.468L4.57359 2.46851C4.20402 2.52344 3.89606 2.6708 3.68265 2.92546C3.47009 3.17911 3.37598 3.50985 3.37598 3.88474V16.7343C3.37598 17.1007 3.44667 17.4324 3.6529 17.6895C3.86182 17.9499 4.17624 18.0924 4.57415 18.1507ZM16.4684 3.84347L16.4699 3.84361C16.7537 3.8701 16.9344 3.96436 17.0472 4.09586C17.162 4.22972 17.2363 4.43682 17.2363 4.74606V12.2783C17.2363 12.5479 17.173 12.7241 17.0764 12.8404C16.9806 12.9558 16.8252 13.0446 16.5757 13.0863C13.2538 13.6268 8.72864 13.6268 5.42452 13.0863C5.17487 13.0446 5.01942 12.9559 4.92355 12.8404C4.82698 12.7241 4.76367 12.5479 4.76367 12.2783V4.74606C4.76367 4.4383 4.83941 4.23135 4.95613 4.09709C5.0713 3.96462 5.25487 3.87012 5.53886 3.84362L5.53973 3.84353C8.88156 3.51985 13.1366 3.51117 16.4684 3.84347ZM4.99707 21.8633H3.94238C3.61399 21.8633 3.3572 21.7524 3.18312 21.5783C3.00892 21.4041 2.90039 21.1495 2.90039 20.83V20.0253C2.90039 19.515 2.78277 19.0125 2.67284 18.5429L2.66969 18.5294C2.55639 18.0453 2.45215 17.5949 2.45215 17.1474V10.3711C2.45215 10.0146 2.16314 9.72556 1.80664 9.72556C1.57866 9.72556 1.4001 9.65304 1.28124 9.54407C1.16424 9.43683 1.08984 9.28085 1.08984 9.07907V5.29099C1.08984 5.0892 1.16424 4.93323 1.28124 4.82598C1.4001 4.71702 1.57866 4.6445 1.80664 4.6445C2.16314 4.6445 2.45215 4.3555 2.45215 3.99899V3.47165C2.45215 2.91108 2.61424 2.48435 2.90101 2.17803C3.18963 1.86973 3.62882 1.65754 4.2299 1.57498C6.02598 1.34839 8.45733 1.23434 10.9912 1.23434C13.5251 1.23434 15.9565 1.34839 17.7526 1.575C18.3591 1.6577 18.7977 1.86813 19.0847 2.17471C19.3697 2.47923 19.5303 2.90551 19.5303 3.47165V3.9902C19.5303 4.35156 19.8232 4.6445 20.1846 4.6445C20.4125 4.6445 20.5911 4.71702 20.71 4.82598C20.827 4.93323 20.9014 5.0892 20.9014 5.29099V9.07907C20.9014 9.28085 20.827 9.43683 20.71 9.54407C20.5911 9.65304 20.4125 9.72556 20.1846 9.72556C19.8232 9.72556 19.5303 10.0185 19.5303 10.3799V17.1474C19.5303 17.598 19.4259 18.0516 19.3127 18.5387L19.3095 18.5521C19.1996 19.0248 19.082 19.5303 19.082 20.0432V20.83C19.082 21.1495 18.9735 21.4044 18.8 21.5788C18.6267 21.7529 18.3721 21.8633 18.0488 21.8633H16.9941C16.6646 21.8633 16.4079 21.7538 16.2345 21.5812C16.061 21.4086 15.9521 21.1544 15.9521 20.83C15.9521 19.9571 15.2116 19.2758 14.3485 19.3154C13.2992 19.3636 12.1733 19.3847 10.9912 19.3847C9.80909 19.3847 8.68323 19.3636 7.63396 19.3154C6.77085 19.2758 6.03027 19.9571 6.03027 20.83C6.03027 21.1545 5.92134 21.4089 5.74864 21.5816C5.57593 21.7543 5.3215 21.8633 4.99707 21.8633ZM6.83008 15.8115C6.83008 16.2887 6.4674 16.6513 5.99023 16.6513C5.50296 16.6513 5.1416 16.2873 5.1416 15.8115C5.1416 15.3356 5.50296 14.9716 5.99023 14.9716C6.4674 14.9716 6.83008 15.3343 6.83008 15.8115ZM16.8496 15.8115C16.8496 16.286 16.4808 16.6513 16.001 16.6513C15.5238 16.6513 15.1611 16.2887 15.1611 15.8115C15.1611 15.3343 15.5238 14.9716 16.001 14.9716C16.4808 14.9716 16.8496 15.337 16.8496 15.8115ZM13.0391 16.3525H8.97852C8.77368 16.3525 8.62605 16.2874 8.5312 16.1961C8.4369 16.1053 8.37598 15.9707 8.37598 15.7939C8.37598 15.6175 8.43664 15.4858 8.5298 15.3975C8.624 15.3081 8.77183 15.2441 8.97852 15.2441H13.0391C13.2181 15.2441 13.3549 15.3045 13.4459 15.3942C13.5366 15.4835 13.5977 15.6171 13.5977 15.7939C13.5977 15.971 13.5364 16.1076 13.4446 16.1994C13.3528 16.2912 13.2162 16.3525 13.0391 16.3525Z" stroke="white" stroke-width="0.5"/>
</svg>
