<svg width="21" height="19" viewBox="0 0 21 19" fill="none" xmlns="http://www.w3.org/2000/svg">
<path d="M17.0699 18.4509H3.29192C2.25212 18.4509 1.50224 18.1817 1.01146 17.6953C0.521062 17.2094 0.25 16.4676 0.25 15.439V3.2619C0.25 2.228 0.521206 1.48651 1.01125 1.00201C1.5018 0.517016 2.25155 0.25 3.29192 0.25H17.0699C18.115 0.25 18.8674 0.519375 19.3594 1.00576C19.8508 1.49167 20.1219 2.23329 20.1219 3.2619V15.439C20.1219 16.4676 19.8508 17.2092 19.3594 17.6951C18.8674 18.1815 18.115 18.4509 17.0699 18.4509ZM1.74116 15.399C1.74116 15.8806 1.8675 16.2821 2.14883 16.5618C2.42988 16.8413 2.82593 16.9597 3.28191 16.9597H17.0799C17.5359 16.9597 17.932 16.8413 18.213 16.5618C18.4943 16.2821 18.6207 15.8806 18.6207 15.399V6.19361C18.6207 5.71195 18.4943 5.31047 18.213 5.03075C17.932 4.75131 17.5359 4.63284 17.0799 4.63284H3.28191C2.82593 4.63284 2.42988 4.75131 2.14883 5.03075C1.8675 5.31047 1.74116 5.71195 1.74116 6.19361V15.399ZM8.84515 8.08485H8.2548C8.0846 8.08485 8.05209 8.0551 8.05177 8.05479L8.05177 8.05479C8.05167 8.0547 8.0507 8.05382 8.04893 8.0507C8.0469 8.04713 8.04328 8.03963 8.03944 8.02606C8.03125 7.99719 8.02452 7.95002 8.02452 7.87458V7.28424C8.02452 7.20589 8.03131 7.15633 8.03985 7.12552C8.04387 7.11098 8.04772 7.10275 8.05 7.09865C8.05209 7.0949 8.05326 7.09385 8.05334 7.09377C8.05346 7.09366 8.05495 7.09215 8.05972 7.08968C8.06484 7.08702 8.07429 7.08298 8.09016 7.07889C8.12359 7.07028 8.17533 7.06397 8.2548 7.06397H8.84515C8.92462 7.06397 8.97636 7.07028 9.0098 7.07889C9.02566 7.08298 9.03511 7.08702 9.04024 7.08968C9.045 7.09215 9.04649 7.09366 9.04661 7.09377L9.04662 7.09378C9.04677 7.09392 9.04793 7.09502 9.04995 7.09865C9.05223 7.10275 9.05608 7.11098 9.06011 7.12552C9.06864 7.15633 9.07543 7.20589 9.07543 7.28424V7.87458C9.07543 7.95002 9.0687 7.99719 9.06052 8.02606C9.05667 8.03963 9.05305 8.04713 9.05103 8.0507C9.04925 8.05382 9.04829 8.0547 9.04819 8.05479L9.04818 8.05479C9.04786 8.0551 9.01535 8.08485 8.84515 8.08485ZM12.1171 8.08485H11.5267C11.3565 8.08485 11.324 8.0551 11.3237 8.0548L11.3237 8.05479C11.3236 8.05469 11.3226 8.05381 11.3208 8.0507C11.3188 8.04713 11.3152 8.03963 11.3113 8.02606C11.3032 7.99719 11.2964 7.95002 11.2964 7.87458V7.28424C11.2964 7.20589 11.3032 7.15633 11.3118 7.12552C11.3158 7.11098 11.3196 7.10275 11.3219 7.09865C11.3239 7.09502 11.3251 7.09392 11.3252 7.09378L11.3252 7.09377C11.3254 7.09366 11.3269 7.09215 11.3316 7.08968C11.3367 7.08702 11.3462 7.08298 11.3621 7.07889C11.3955 7.07028 11.4472 7.06397 11.5267 7.06397H12.1171C12.1936 7.06397 12.243 7.07023 12.2746 7.07854C12.2895 7.08247 12.2982 7.0863 12.3028 7.08872C12.307 7.09096 12.3082 7.09226 12.3083 7.09231C12.3083 7.09232 12.3085 7.09253 12.3089 7.09307C12.3095 7.0938 12.3104 7.09514 12.3117 7.09742C12.3141 7.10173 12.318 7.1102 12.322 7.12494C12.3306 7.15611 12.3373 7.20596 12.3373 7.28424V7.87458C12.3373 7.94995 12.3306 7.99741 12.3224 8.02665C12.3185 8.04043 12.3149 8.04816 12.3128 8.05194C12.3117 8.05381 12.3109 8.05488 12.3106 8.05539L12.3098 8.05625C12.3098 8.05626 12.3085 8.05763 12.304 8.05996C12.2992 8.06246 12.2903 8.06634 12.2751 8.07028C12.2433 8.07861 12.1936 8.08485 12.1171 8.08485ZM15.379 8.08485H14.7886C14.7121 8.08485 14.6624 8.07861 14.6305 8.07028C14.6154 8.06634 14.6064 8.06246 14.6016 8.05996C14.5972 8.05763 14.5959 8.05626 14.5958 8.05625L14.5951 8.05539C14.5947 8.05488 14.594 8.05381 14.5929 8.05194C14.5908 8.04816 14.5871 8.04043 14.5833 8.02665C14.575 7.99741 14.5683 7.94995 14.5683 7.87458V7.28424C14.5683 7.20596 14.5751 7.15611 14.5837 7.12494C14.5877 7.1102 14.5916 7.10173 14.594 7.09742C14.5961 7.09356 14.5973 7.0924 14.5974 7.09231L14.5974 7.09231C14.5974 7.09226 14.5987 7.09096 14.6029 7.08872C14.6075 7.0863 14.6162 7.08247 14.6311 7.07854C14.6626 7.07023 14.712 7.06397 14.7886 7.06397H15.379C15.4584 7.06397 15.5102 7.07028 15.5436 7.07889C15.5595 7.08298 15.5689 7.08702 15.574 7.08968C15.5788 7.09215 15.5803 7.09366 15.5804 7.09377C15.5805 7.09381 15.5808 7.09411 15.5814 7.09492C15.582 7.09566 15.5828 7.09684 15.5838 7.09865C15.586 7.10275 15.5899 7.11098 15.5939 7.12552C15.6024 7.15633 15.6092 7.20589 15.6092 7.28424V7.87458C15.6092 7.95002 15.6025 7.99719 15.5943 8.02606C15.5905 8.03963 15.5869 8.04713 15.5848 8.0507C15.5843 8.05169 15.5838 8.05245 15.5834 8.05303C15.5825 8.05436 15.582 8.05477 15.582 8.0548C15.5817 8.0551 15.5492 8.08485 15.379 8.08485ZM5.57324 11.3067H4.99291C4.91344 11.3067 4.86169 11.3004 4.82826 11.2918C4.81239 11.2877 4.80294 11.2837 4.79782 11.281C4.79305 11.2785 4.79156 11.277 4.79144 11.2769L4.79143 11.2769C4.79128 11.2768 4.79012 11.2757 4.7881 11.272C4.78582 11.2679 4.78197 11.2597 4.77795 11.2452C4.76941 11.2144 4.76263 11.1648 4.76263 11.0865V10.4961C4.76263 10.4207 4.76935 10.3735 4.77754 10.3446C4.78138 10.3311 4.785 10.3236 4.78703 10.32C4.78886 10.3168 4.78983 10.3159 4.78988 10.3159C4.7902 10.3156 4.8227 10.2858 4.99291 10.2858H5.57324C5.74345 10.2858 5.77595 10.3156 5.77627 10.3159L5.77628 10.3159C5.77639 10.316 5.77736 10.3169 5.77912 10.32C5.78115 10.3236 5.78476 10.3311 5.78861 10.3446C5.7968 10.3735 5.80352 10.4207 5.80352 10.4961V11.0865C5.80352 11.1648 5.79674 11.2144 5.7882 11.2452C5.78418 11.2597 5.78033 11.2679 5.77805 11.272C5.77596 11.2758 5.77479 11.2768 5.77471 11.2769L5.7747 11.2769C5.77452 11.2771 5.77298 11.2786 5.76833 11.281C5.76321 11.2837 5.75376 11.2877 5.73789 11.2918C5.70446 11.3004 5.65271 11.3067 5.57324 11.3067ZM8.84515 11.3067H8.2548C8.17533 11.3067 8.12359 11.3004 8.09016 11.2918C8.07429 11.2877 8.06484 11.2837 8.05972 11.281C8.05505 11.2786 8.05353 11.2771 8.05335 11.2769L8.05334 11.2769L8.05333 11.2769C8.05318 11.2768 8.05202 11.2757 8.05 11.272C8.04772 11.2679 8.04387 11.2597 8.03985 11.2452C8.03131 11.2144 8.02452 11.1648 8.02452 11.0865V10.4961C8.02452 10.4207 8.03125 10.3735 8.03944 10.3446C8.04328 10.3311 8.0469 10.3236 8.04893 10.32C8.05076 10.3168 8.05173 10.3159 8.05177 10.3159C8.05209 10.3156 8.0846 10.2858 8.2548 10.2858H8.84515C9.01535 10.2858 9.04786 10.3156 9.04818 10.3159L9.04819 10.3159C9.04829 10.316 9.04925 10.3169 9.05103 10.32C9.05305 10.3236 9.05667 10.3311 9.06052 10.3446C9.0687 10.3735 9.07543 10.4207 9.07543 10.4961V11.0865C9.07543 11.1648 9.06864 11.2144 9.06011 11.2452C9.05608 11.2597 9.05223 11.2679 9.04995 11.272C9.04794 11.2757 9.04678 11.2768 9.04662 11.2769L9.04661 11.2769L9.0466 11.2769C9.04641 11.2771 9.04488 11.2786 9.04023 11.281C9.03511 11.2837 9.02566 11.2877 9.0098 11.2918C8.97636 11.3004 8.92462 11.3067 8.84515 11.3067ZM12.1171 11.3067H11.5267C11.4472 11.3067 11.3955 11.3004 11.3621 11.2918C11.3462 11.2877 11.3367 11.2837 11.3316 11.281C11.3269 11.2785 11.3254 11.277 11.3252 11.2769L11.3252 11.2769C11.3251 11.2768 11.3239 11.2757 11.3219 11.272C11.3196 11.2679 11.3158 11.2597 11.3118 11.2452C11.3032 11.2144 11.2964 11.1648 11.2964 11.0865V10.4961C11.2964 10.4207 11.3032 10.3735 11.3113 10.3446C11.3152 10.3311 11.3188 10.3236 11.3208 10.32C11.3227 10.3168 11.3236 10.3159 11.3237 10.3159C11.324 10.3156 11.3565 10.2858 11.5267 10.2858H12.1171C12.1936 10.2858 12.2433 10.2921 12.2751 10.3004C12.2903 10.3044 12.2992 10.3082 12.304 10.3107C12.3085 10.3131 12.3098 10.3144 12.3098 10.3144L12.3106 10.3153C12.3109 10.3158 12.3117 10.3169 12.3128 10.3188C12.3149 10.3225 12.3185 10.3303 12.3224 10.344C12.3306 10.3733 12.3373 10.4207 12.3373 10.4961V11.0865C12.3373 11.1647 12.3306 11.2146 12.322 11.2458C12.318 11.2605 12.3141 11.269 12.3117 11.2733C12.3096 11.2771 12.3084 11.2783 12.3083 11.2784L12.3083 11.2784L12.3083 11.2784C12.3081 11.2785 12.3069 11.2798 12.3028 11.282C12.2982 11.2844 12.2895 11.2882 12.2746 11.2922C12.243 11.3005 12.1936 11.3067 12.1171 11.3067ZM15.379 11.3067H14.7886C14.712 11.3067 14.6626 11.3005 14.6311 11.2922C14.6162 11.2882 14.6075 11.2844 14.6029 11.282C14.6011 11.281 14.5998 11.2802 14.599 11.2796C14.5978 11.2788 14.5974 11.2784 14.5974 11.2784L14.5974 11.2784C14.5973 11.2783 14.5961 11.2771 14.594 11.2733C14.5916 11.269 14.5877 11.2605 14.5837 11.2458C14.5751 11.2146 14.5683 11.1647 14.5683 11.0865V10.4961C14.5683 10.4207 14.575 10.3733 14.5833 10.344C14.5871 10.3303 14.5908 10.3225 14.5929 10.3188C14.5934 10.318 14.5938 10.3173 14.5941 10.3168C14.5945 10.3161 14.5949 10.3156 14.5951 10.3153L14.5958 10.3144C14.5959 10.3144 14.5972 10.3131 14.6016 10.3107C14.6064 10.3082 14.6154 10.3044 14.6305 10.3004C14.6624 10.2921 14.7121 10.2858 14.7886 10.2858H15.379C15.5492 10.2858 15.5817 10.3156 15.582 10.3159C15.582 10.3159 15.583 10.3168 15.5848 10.32C15.5869 10.3236 15.5905 10.3311 15.5943 10.3446C15.6025 10.3735 15.6092 10.4207 15.6092 10.4961V11.0865C15.6092 11.1648 15.6024 11.2144 15.5939 11.2452C15.5899 11.2597 15.586 11.2679 15.5838 11.272C15.5817 11.2757 15.5806 11.2768 15.5804 11.2769L15.5804 11.2769C15.5803 11.277 15.5799 11.2775 15.5786 11.2783C15.5776 11.279 15.5762 11.2799 15.574 11.281C15.5689 11.2837 15.5595 11.2877 15.5436 11.2918C15.5102 11.3004 15.4584 11.3067 15.379 11.3067ZM5.57324 14.5186H4.99291C4.8227 14.5186 4.7902 14.4888 4.78988 14.4885C4.78983 14.4885 4.78886 14.4877 4.78703 14.4844C4.785 14.4809 4.78138 14.4734 4.77754 14.4598C4.76935 14.4309 4.76263 14.3838 4.76263 14.3083V13.718C4.76263 13.6396 4.76941 13.5901 4.77795 13.5593C4.78197 13.5447 4.78582 13.5365 4.7881 13.5324C4.79012 13.5288 4.79128 13.5277 4.79143 13.5275L4.79144 13.5275C4.79151 13.5275 4.79204 13.5269 4.79342 13.526C4.7944 13.5253 4.79583 13.5245 4.79782 13.5234C4.80294 13.5208 4.81239 13.5167 4.82826 13.5126C4.86169 13.504 4.91344 13.4977 4.99291 13.4977H5.57324C5.65271 13.4977 5.70446 13.504 5.73789 13.5126C5.75376 13.5167 5.76321 13.5208 5.76833 13.5234C5.7731 13.5259 5.77459 13.5274 5.77471 13.5275C5.77479 13.5276 5.77596 13.5286 5.77805 13.5324C5.78033 13.5365 5.78418 13.5447 5.7882 13.5593C5.79674 13.5901 5.80352 13.6396 5.80352 13.718V14.3083C5.80352 14.3838 5.7968 14.4309 5.78861 14.4598C5.78476 14.4734 5.78115 14.4809 5.77912 14.4844C5.77736 14.4876 5.77639 14.4884 5.77628 14.4885L5.77627 14.4885C5.77595 14.4888 5.74345 14.5186 5.57324 14.5186ZM8.84515 14.5186H8.2548C8.0846 14.5186 8.05209 14.4888 8.05177 14.4885C8.05173 14.4885 8.05076 14.4877 8.04893 14.4844C8.0469 14.4809 8.04328 14.4734 8.03944 14.4598C8.03125 14.4309 8.02452 14.3838 8.02452 14.3083V13.718C8.02452 13.6396 8.03131 13.5901 8.03985 13.5593C8.04387 13.5447 8.04772 13.5365 8.05 13.5324C8.05202 13.5288 8.05318 13.5277 8.05333 13.5275L8.05334 13.5275C8.05346 13.5274 8.05495 13.5259 8.05972 13.5234C8.06484 13.5208 8.07429 13.5167 8.09016 13.5126C8.12359 13.504 8.17533 13.4977 8.2548 13.4977H8.84515C8.92462 13.4977 8.97636 13.504 9.0098 13.5126C9.02566 13.5167 9.03511 13.5208 9.04024 13.5234C9.04488 13.5258 9.04642 13.5273 9.0466 13.5275L9.04661 13.5275C9.04669 13.5276 9.04787 13.5286 9.04995 13.5324C9.05223 13.5365 9.05608 13.5447 9.06011 13.5593C9.06864 13.5901 9.07543 13.6396 9.07543 13.718V14.3083C9.07543 14.3838 9.0687 14.4309 9.06052 14.4598C9.05667 14.4734 9.05305 14.4809 9.05103 14.4844C9.04919 14.4877 9.04822 14.4885 9.04818 14.4885C9.04786 14.4888 9.01535 14.5186 8.84515 14.5186ZM12.1171 14.5186H11.5267C11.3565 14.5186 11.324 14.4888 11.3237 14.4885L11.3237 14.4885C11.3236 14.4884 11.3226 14.4876 11.3208 14.4844C11.3188 14.4809 11.3152 14.4734 11.3113 14.4598C11.3032 14.4309 11.2964 14.3838 11.2964 14.3083V13.718C11.2964 13.6396 11.3032 13.5901 11.3118 13.5593C11.3158 13.5447 11.3196 13.5365 11.3219 13.5324C11.324 13.5286 11.3252 13.5276 11.3252 13.5275C11.3254 13.5274 11.3269 13.5259 11.3316 13.5234C11.3367 13.5208 11.3462 13.5167 11.3621 13.5126C11.3955 13.504 11.4472 13.4977 11.5267 13.4977H12.1171C12.1936 13.4977 12.243 13.504 12.2746 13.5123C12.2895 13.5162 12.2982 13.52 12.3028 13.5225C12.307 13.5247 12.3082 13.526 12.3083 13.5261C12.3083 13.5261 12.3095 13.5272 12.3117 13.5312C12.3141 13.5355 12.318 13.5439 12.322 13.5587C12.3306 13.5899 12.3373 13.6397 12.3373 13.718V14.3083C12.3373 14.3837 12.3306 14.4312 12.3224 14.4604C12.3185 14.4742 12.3149 14.4819 12.3128 14.4857C12.3121 14.4868 12.3116 14.4877 12.3112 14.4883C12.3109 14.4887 12.3107 14.4889 12.3106 14.4891L12.3098 14.49C12.3098 14.49 12.3085 14.4914 12.304 14.4937C12.2992 14.4962 12.2903 14.5001 12.2751 14.504C12.2433 14.5124 12.1936 14.5186 12.1171 14.5186Z" stroke="white" stroke-width="0.5"/>
</svg>
