<svg width="22" height="23" viewBox="0 0 22 23" fill="none" xmlns="http://www.w3.org/2000/svg">
<path d="M3.94238 22.1133H4.99707C5.76172 22.1133 6.28027 21.5947 6.28027 20.83C6.28027 20.1041 6.89733 19.5319 7.6225 19.5652C8.67645 19.6135 9.80624 19.6347 10.9912 19.6347C12.1762 19.6347 13.306 19.6135 14.3599 19.5652C15.0851 19.5319 15.7021 20.1041 15.7021 20.83C15.7021 21.5947 16.2207 22.1133 16.9941 22.1133H18.0488C18.8135 22.1133 19.332 21.5859 19.332 20.83V20.0432C19.332 19.0749 19.7803 18.1158 19.7803 17.1474V10.3799C19.7803 10.1566 19.9613 9.97556 20.1846 9.97556C20.7471 9.97556 21.1514 9.6152 21.1514 9.07907V5.29099C21.1514 4.75485 20.7471 4.3945 20.1846 4.3945C19.9613 4.3945 19.7803 4.21349 19.7803 3.9902V3.47165C19.7803 2.24118 19.0771 1.5029 17.7852 1.32712C15.9746 1.0986 13.5312 0.984344 10.9912 0.984344C8.45117 0.984344 6.00781 1.0986 4.19727 1.32712C2.91406 1.5029 2.20215 2.24997 2.20215 3.47165V3.99899C2.20215 4.21743 2.02507 4.3945 1.80664 4.3945C1.24414 4.3945 0.839844 4.75485 0.839844 5.29099V9.07907C0.839844 9.6152 1.24414 9.97556 1.80664 9.97556C2.02507 9.97556 2.20215 10.1526 2.20215 10.3711V17.1474C2.20215 18.1101 2.65039 19.0626 2.65039 20.0253V20.83C2.65039 21.5859 3.16895 22.1133 3.94238 22.1133ZM10.9912 18.2197C8.32812 18.2197 6.13965 18.1054 4.61035 17.9033C3.88965 17.7978 3.62598 17.4111 3.62598 16.7343V3.88474C3.62598 3.21677 3.95996 2.81247 4.61035 2.71579C6.11328 2.51364 8.4248 2.39938 10.9912 2.39938C13.54 2.40817 15.8516 2.52243 17.3721 2.71579C18.0928 2.81247 18.3652 3.19919 18.3652 3.88474V16.7343C18.3652 17.4199 18.0928 17.8066 17.3721 17.9033C15.8252 18.0966 13.6279 18.2197 10.9912 18.2197ZM5.38379 13.333C8.71484 13.8779 13.2676 13.8779 16.6162 13.333C17.1963 13.2363 17.4863 12.8935 17.4863 12.2783V4.74606C17.4863 4.05173 17.1523 3.65622 16.4932 3.5947C13.1445 3.26071 8.87305 3.2695 5.51562 3.5947C4.85645 3.65622 4.51367 4.05173 4.51367 4.74606V12.2783C4.51367 12.8935 4.80371 13.2363 5.38379 13.333ZM5.99023 16.9013C6.60547 16.9013 7.08008 16.4267 7.08008 15.8115C7.08008 15.1963 6.60547 14.7216 5.99023 14.7216C5.36621 14.7216 4.8916 15.1963 4.8916 15.8115C4.8916 16.4267 5.36621 16.9013 5.99023 16.9013ZM16.001 16.9013C16.6162 16.9013 17.0996 16.4267 17.0996 15.8115C17.0996 15.1963 16.6162 14.7216 16.001 14.7216C15.3857 14.7216 14.9111 15.1963 14.9111 15.8115C14.9111 16.4267 15.3857 16.9013 16.001 16.9013ZM8.97852 16.6025H13.0391C13.5137 16.6025 13.8477 16.2685 13.8477 15.7939C13.8477 15.3193 13.5137 14.9941 13.0391 14.9941H8.97852C8.45996 14.9941 8.12598 15.3193 8.12598 15.7939C8.12598 16.2685 8.45996 16.6025 8.97852 16.6025Z" fill="white"/>
</svg>
