<svg width="11" height="6" viewBox="0 0 11 6" fill="none" xmlns="http://www.w3.org/2000/svg">
<path d="M5.20003 5.20003C5.40521 5.19494 5.59281 5.12879 5.74524 4.98633L10.2007 1.02779C10.3297 0.915856 10.4001 0.77339 10.4001 0.605483C10.4001 0.269669 10.0952 0 9.70828 0C9.52068 0 9.33894 0.0661452 9.20411 0.183171L5.20589 3.74992L1.19595 0.183171C1.06111 0.0712333 0.885236 0 0.691774 0C0.304849 0 0 0.269669 0 0.605483C0 0.77339 0.0703499 0.915856 0.199325 1.02779L4.66068 4.98633C4.81897 5.12879 4.99484 5.20003 5.20003 5.20003Z" fill="#0081FF"/>
</svg>
