<svg width="10" height="16" viewBox="0 0 10 16" fill="none" xmlns="http://www.w3.org/2000/svg">
<path d="M9.5399e-08 8C0.0097848 8.31567 0.136986 8.60428 0.410958 8.83878L8.02348 15.6933C8.23875 15.8918 8.51272 16 8.83562 16C9.48141 16 10 15.531 10 14.9357C10 14.6471 9.8728 14.3675 9.64775 14.1601L2.78865 8.00902L9.64775 1.83991C9.86301 1.63247 10 1.36189 10 1.06426C10 0.468997 9.48141 6.18414e-09 8.83562 1.38851e-08C8.51272 1.77356e-08 8.23875 0.10823 8.02348 0.306652L0.410958 7.17024C0.136986 7.41375 9.16347e-08 7.68433 9.5399e-08 8Z" fill="#0081FF"/>
</svg>
