<svg width="60" height="66" viewBox="0 0 60 66" fill="none" xmlns="http://www.w3.org/2000/svg">
<path fill-rule="evenodd" clip-rule="evenodd" d="M32.0499 0C39.5313 0.0425596 43.3161 7.6041 44.8018 13.3902C48.0103 15.2172 50.935 17.6759 53.3855 20.7457C63.6905 33.6551 61.7333 52.5167 49.0581 63.0436C48.9222 63.1565 48.7107 63.0983 48.6343 62.9387C48.5711 62.8069 48.508 62.6755 48.445 62.5446C51.7455 28.2697 24.7335 25.9658 16.1595 30.1424C8.51857 32.953 4.73553 45.8195 6.183 56.3136C16.0151 52.9047 17.1089 55.7534 18.4388 59.2171C19.4479 61.8453 20.5931 64.8277 25.795 65.699C16.7129 65.699 10.9283 63.5652 6.577 58.5365C6.58933 58.5929 6.60182 58.6491 6.61448 58.7053C6.11234 58.0762 5.63932 57.433 5.19523 56.7774C5.17432 56.7482 5.15345 56.7189 5.1326 56.6895C5.13349 56.6892 5.13438 56.6888 5.13527 56.6885C-3.52691 43.8018 -1.05202 26.1391 11.2103 16.187C17.7689 10.864 25.8662 8.77041 33.6071 9.70135C35.9502 7.37416 33.8203 2.61032 32.0499 0ZM48.438 62.5301C46.1158 37.8958 28.1029 26.8889 17.1331 29.8447C24.6005 28.0129 35.4133 35.4872 48.438 62.5301Z" fill="url(#paint0_linear_900_543)"/>
<path fill-rule="evenodd" clip-rule="evenodd" d="M32.0499 0C39.5313 0.0425596 43.3161 7.6041 44.8018 13.3902C48.0103 15.2172 50.935 17.6759 53.3855 20.7457C63.6905 33.6551 61.7333 52.5167 49.0581 63.0436C48.9222 63.1565 48.7107 63.0983 48.6343 62.9387C48.5711 62.8069 48.508 62.6755 48.445 62.5446C51.7455 28.2697 24.7335 25.9658 16.1595 30.1424C8.51857 32.953 4.73553 45.8195 6.183 56.3136C16.0151 52.9047 17.1089 55.7534 18.4388 59.2171C19.4479 61.8453 20.5931 64.8277 25.795 65.699C16.7129 65.699 10.9283 63.5652 6.577 58.5365C6.58933 58.5929 6.60182 58.6491 6.61448 58.7053C6.11234 58.0762 5.63932 57.433 5.19523 56.7774C5.17432 56.7482 5.15345 56.7189 5.1326 56.6895C5.13349 56.6892 5.13438 56.6888 5.13527 56.6885C-3.52691 43.8018 -1.05202 26.1391 11.2103 16.187C17.7689 10.864 25.8662 8.77041 33.6071 9.70135C35.9502 7.37416 33.8203 2.61032 32.0499 0ZM48.438 62.5301C46.1158 37.8958 28.1029 26.8889 17.1331 29.8447C24.6005 28.0129 35.4133 35.4872 48.438 62.5301Z" fill="url(#paint1_linear_900_543)" fill-opacity="0.3"/>
<path fill-rule="evenodd" clip-rule="evenodd" d="M32.0499 0C39.5313 0.0425596 43.3161 7.6041 44.8018 13.3902C48.0103 15.2172 50.935 17.6759 53.3855 20.7457C63.6905 33.6551 61.7333 52.5167 49.0581 63.0436C48.9222 63.1565 48.7107 63.0983 48.6343 62.9387C48.5711 62.8069 48.508 62.6755 48.445 62.5446C51.7455 28.2697 24.7335 25.9658 16.1595 30.1424C8.51857 32.953 4.73553 45.8195 6.183 56.3136C16.0151 52.9047 17.1089 55.7534 18.4388 59.2171C19.4479 61.8453 20.5931 64.8277 25.795 65.699C16.7129 65.699 10.9283 63.5652 6.577 58.5365C6.58933 58.5929 6.60182 58.6491 6.61448 58.7053C6.11234 58.0762 5.63932 57.433 5.19523 56.7774C5.17432 56.7482 5.15345 56.7189 5.1326 56.6895C5.13349 56.6892 5.13438 56.6888 5.13527 56.6885C-3.52691 43.8018 -1.05202 26.1391 11.2103 16.187C17.7689 10.864 25.8662 8.77041 33.6071 9.70135C35.9502 7.37416 33.8203 2.61032 32.0499 0ZM48.438 62.5301C46.1158 37.8958 28.1029 26.8889 17.1331 29.8447C24.6005 28.0129 35.4133 35.4872 48.438 62.5301Z" fill="url(#paint2_linear_900_543)" fill-opacity="0.2"/>
<defs>
<linearGradient id="paint0_linear_900_543" x1="55.4883" y1="62.6835" x2="-12.8584" y2="11.827" gradientUnits="userSpaceOnUse">
<stop stop-color="#001F98"/>
<stop offset="1" stop-color="#00F4F7"/>
</linearGradient>
<linearGradient id="paint1_linear_900_543" x1="39.1406" y1="-6.54424" x2="-1.43966" y2="50.1966" gradientUnits="userSpaceOnUse">
<stop stop-color="#4BA7FF"/>
<stop offset="1" stop-color="#0081FF"/>
</linearGradient>
<linearGradient id="paint2_linear_900_543" x1="2.34375" y1="-2.69469" x2="43.1016" y2="38.5326" gradientUnits="userSpaceOnUse">
<stop stop-color="white"/>
<stop offset="1" stop-color="white" stop-opacity="0"/>
</linearGradient>
</defs>
</svg>
